# xmcd CD database file
#
# Track frame offsets:
#	150
#	14213
#	27006
#	39264
#	54718
#	64500
#	76582
#	89075
#	103719
#	116613
#
# Disc length: 1693 seconds
#
# Revision: 2
# Processed by: cddbd v1.4PL0 Copyright (c) Steve Scherf et al.
# Submitted via: CDex 1.50
#
DISCID=79069b0a
DTITLE=Various Artist - The 101 Greatest Country Hits Vol 9: Country Classics
DYEAR=1900
DGENRE=
TTITLE0=Harper Valley P.T.A.
TTITLE1=Wolverton Mountain
TTITLE2=Tennessee Birdwalk
TTITLE3=Country Bumpkin
TTITLE4=From A Jack To A King
TTITLE5=Take This Job And Shove It
TTITLE6=The Carroll County Accident
TTITLE7=Put Your Hand In The Hand
TTITLE8=Hey, Good lookin'
TTITLE9=May The Bird Of Paradise Fly Up Your Nose
EXTD=
EXTT0=JEANNIE C. RILEY
EXTT1=CLAUDE KING
EXTT2=JACK BLANCHARD and MISTY MORGAN
EXTT3=CAL SMITH
EXTT4=NED MILLER
EXTT5=JOHNNY PAYCHECK
EXTT6=PORTER WAGONER
EXTT7=SANDY POSEY
EXTT8=ACE CANNON
EXTT9=LITTLE JIMMY DICKENS
PLAYORDER=
